<?xml version="1.0" encoding="UTF-8" standalone="no"?>
<!-- Generator: Adobe Illustrator 17.0.0, SVG Export Plug-In . SVG Version: 6.00 Build 0)  -->

<svg
   xmlns:dc="http://purl.org/dc/elements/1.1/"
   xmlns:cc="http://creativecommons.org/ns#"
   xmlns:rdf="http://www.w3.org/1999/02/22-rdf-syntax-ns#"
   xmlns:svg="http://www.w3.org/2000/svg"
   xmlns="http://www.w3.org/2000/svg"
   xmlns:sodipodi="http://sodipodi.sourceforge.net/DTD/sodipodi-0.dtd"
   xmlns:inkscape="http://www.inkscape.org/namespaces/inkscape"
   version="1.1"
   id="Capa_1"
   x="0px"
   y="0px"
   width="64px"
   height="64px"
   viewBox="0 0 64 64"
   enable-background="new 0 0 64 64"
   xml:space="preserve"
   inkscape:version="0.48.2 r9819"
   sodipodi:docname="city7.svg"><metadata
     id="metadata3844"><rdf:RDF><cc:Work
         rdf:about=""><dc:format>image/svg+xml</dc:format><dc:type
           rdf:resource="http://purl.org/dc/dcmitype/StillImage" /><dc:title></dc:title></cc:Work></rdf:RDF></metadata><defs
     id="defs3842" /><sodipodi:namedview
     pagecolor="#ffffff"
     bordercolor="#666666"
     borderopacity="1"
     objecttolerance="10"
     gridtolerance="10"
     guidetolerance="10"
     inkscape:pageopacity="0"
     inkscape:pageshadow="2"
     inkscape:window-width="751"
     inkscape:window-height="480"
     id="namedview3840"
     showgrid="false"
     inkscape:zoom="3.69"
     inkscape:cx="-15.96748"
     inkscape:cy="32"
     inkscape:window-x="0"
     inkscape:window-y="0"
     inkscape:window-maximized="0"
     inkscape:current-layer="Capa_1" /><path
     d="M 36.995246,54.36131 V 31.302902 c 0,-0.726042 -0.589252,-1.315294 -1.315293,-1.315294 -0.726042,0 -1.315294,0.589252 -1.315294,1.315294 V 54.36131 c 0,0.726042 0.589252,1.315293 1.315294,1.315293 0.727357,0 1.315293,-0.589251 1.315293,-1.315293 z"
     id="path3828"
     style="fill:#007aff;fill-opacity:1"
     inkscape:connector-curvature="0" /><path
     d="M 44.829133,54.36131 V 31.302902 c 0,-0.726042 -0.589251,-1.315294 -1.315293,-1.315294 -0.726042,0 -1.315294,0.589252 -1.315294,1.315294 V 54.36131 c 0,0.726042 0.589252,1.315293 1.315294,1.315293 0.726042,0 1.315293,-0.589251 1.315293,-1.315293 z"
     id="path3830"
     style="fill:#007aff;fill-opacity:1"
     inkscape:connector-curvature="0" /><path
     d="M 59.660381,60.937777 V 54.36131 c 0,-0.726042 -0.589251,-1.315294 -1.315293,-1.315294 H 52.502555 V 28.659162 c 0,-0.726042 -0.589252,-1.315293 -1.315294,-1.315293 -0.726042,0 -1.315293,0.589251 -1.315293,1.315293 V 54.36131 c 0,0.726042 0.589251,1.315293 1.315293,1.315293 h 5.842534 v 3.94588 H 6.6606354 v -3.94588 h 5.8399026 c 0.726041,0 1.315293,-0.589251 1.315293,-1.315293 V 28.659162 c 0,-0.726042 -0.589252,-1.315293 -1.315293,-1.315293 -0.726042,0 -1.315293,0.589251 -1.315293,1.315293 V 53.046016 H 5.345342 c -0.7260419,0 -1.3152934,0.589252 -1.3152934,1.315294 v 6.576467 c 0,0.726042 0.5892515,1.315293 1.3152934,1.315293 h 52.999746 c 0.727357,0 1.315293,-0.589251 1.315293,-1.315293 z"
     id="path3832"
     style="fill:#007aff;fill-opacity:1"
     inkscape:connector-curvature="0" /><path
     d="M 21.490568,54.36131 V 31.302902 c 0,-0.726042 -0.589252,-1.315294 -1.315294,-1.315294 -0.726042,0 -1.315293,0.589252 -1.315293,1.315294 V 54.36131 c 0,0.726042 0.589251,1.315293 1.315293,1.315293 0.726042,0 1.315294,-0.589251 1.315294,-1.315293 z"
     id="path3834"
     style="fill:#007aff;fill-opacity:1"
     inkscape:connector-curvature="0" /><path
     d="M 29.32314,54.36131 V 31.302902 c 0,-0.726042 -0.589252,-1.315294 -1.315294,-1.315294 -0.726042,0 -1.315293,0.589252 -1.315293,1.315294 V 54.36131 c 0,0.726042 0.589251,1.315293 1.315293,1.315293 0.726042,0 1.315294,-0.589251 1.315294,-1.315293 z"
     id="path3836"
     style="fill:#007aff;fill-opacity:1"
     inkscape:connector-curvature="0" /><path
     d="M 0.99566683,23.80836 C 1.1679702,24.355522 1.6756735,24.72775 2.2504567,24.72775 H 61.439973 c 0.572153,0 1.078541,-0.369597 1.253475,-0.915444 0.173619,-0.545847 -0.02499,-1.140359 -0.49192,-1.471813 L 32.800775,1.4483727 C 32.346999,1.1248105 31.739334,1.1234952 31.284242,1.4431115 L 1.494163,22.333916 C 1.0246033,22.664055 0.8220481,23.259883 0.99566683,23.80836 z M 32.033959,4.1302559 57.319159,22.095848 H 6.4173061 L 32.033959,4.1302559 z"
     id="path3838"
     style="fill:#007aff;fill-opacity:1;stroke:none"
     inkscape:connector-curvature="0" /></svg>