<?xml version="1.0" encoding="UTF-8" standalone="no"?>
<svg
   xmlns:dc="http://purl.org/dc/elements/1.1/"
   xmlns:cc="http://creativecommons.org/ns#"
   xmlns:rdf="http://www.w3.org/1999/02/22-rdf-syntax-ns#"
   xmlns:svg="http://www.w3.org/2000/svg"
   xmlns="http://www.w3.org/2000/svg"
   xmlns:sodipodi="http://sodipodi.sourceforge.net/DTD/sodipodi-0.dtd"
   xmlns:inkscape="http://www.inkscape.org/namespaces/inkscape"
   enable-background="new 0 0 50 50"
   height="50px"
   id="Layer_1"
   version="1.1"
   viewBox="0 0 50 50"
   width="50px"
   xml:space="preserve"
   inkscape:version="0.48.2 r9819"
   sodipodi:docname="1401604374_info.svg"><metadata
     id="metadata13"><rdf:RDF><cc:Work
         rdf:about=""><dc:format>image/svg+xml</dc:format><dc:type
           rdf:resource="http://purl.org/dc/dcmitype/StillImage" /></cc:Work></rdf:RDF></metadata><defs
     id="defs11" /><sodipodi:namedview
     pagecolor="#ffffff"
     bordercolor="#666666"
     borderopacity="1"
     objecttolerance="10"
     gridtolerance="10"
     guidetolerance="10"
     inkscape:pageopacity="0"
     inkscape:pageshadow="2"
     inkscape:window-width="751"
     inkscape:window-height="480"
     id="namedview9"
     showgrid="false"
     inkscape:zoom="4.72"
     inkscape:cx="25"
     inkscape:cy="25"
     inkscape:window-x="311"
     inkscape:window-y="806"
     inkscape:window-maximized="0"
     inkscape:current-layer="Layer_1" /><circle
     cx="25"
     cy="25"
     fill="none"
     r="24"
     stroke="#000000"
     stroke-linecap="round"
     stroke-miterlimit="10"
     stroke-width="2"
     id="circle3"
     style="stroke:#007aff;stroke-opacity:1" /><rect
     fill="none"
     height="50"
     width="50"
     id="rect5" /><path
     d="M23.779,16.241c-0.216,0-0.357-0.144-0.357-0.359v-2.618c0-0.215,0.142-0.359,0.357-0.359h2.439  c0.215,0,0.359,0.144,0.359,0.359v2.618c0,0.215-0.145,0.359-0.359,0.359H23.779z M23.852,37.293c-0.215,0-0.358-0.143-0.358-0.358  V20.473c0-0.215,0.144-0.359,0.358-0.359h2.295c0.216,0,0.359,0.144,0.359,0.359v16.462c0,0.216-0.144,0.358-0.359,0.358H23.852z"
     id="path7"
     style="fill:#007aff;fill-opacity:1" /></svg>